<svg xmlns="http://www.w3.org/2000/svg" viewBox="0 0 128 128" role="img" aria-label="Default profile avatar">
  <defs>
    <linearGradient id="bg" x1="22" y1="16" x2="106" y2="118" gradientUnits="userSpaceOnUse">
      <stop offset="0" stop-color="#2d2d2d"/>
      <stop offset="1" stop-color="#111111"/>
    </linearGradient>
    <linearGradient id="ring" x1="28" y1="18" x2="104" y2="112" gradientUnits="userSpaceOnUse">
      <stop offset="0" stop-color="#3183d8"/>
      <stop offset="1" stop-color="#d9d9d8"/>
    </linearGradient>
  </defs>
  <circle cx="64" cy="64" r="60" fill="url(#bg)"/>
  <circle cx="64" cy="64" r="57" fill="none" stroke="url(#ring)" stroke-width="3" opacity=".75"/>
  <circle cx="64" cy="46" r="20" fill="#d9d9d8"/>
  <path d="M29 106c4.8-21.6 18-33 35-33s30.2 11.4 35 33c-9.4 7.6-21.4 12-35 12s-25.6-4.4-35-12Z" fill="#d9d9d8"/>
  <circle cx="64" cy="46" r="17" fill="#252525"/>
  <path d="M39 102c5-14 13.5-21 25-21s20 7 25 21c-7.2 4.9-15.5 7.4-25 7.4S46.2 106.9 39 102Z" fill="#252525"/>
</svg>
